# xmcd
#
# Track frame offsets: 
#        150
#        23953
#        42344
#        57539
#        70325
#        85502
#        100621
#        118484
#        131228
#        141087
#        153523
#        168346
#        184055
#        197400
#
# Disc length: 2912 seconds
#
# Revision: 0
# Processed by: cddbd v1.5.2PL0 Copyright (c) Steve Scherf et al.
# Submitted via: ExactAudioCopyFreeDBPlugin 1.0
#
DISCID=c50b5e0e
DTITLE=Davey Lee Goode and the Bad Cats - Gonna Rock My Blues
DYEAR=2001
DGENRE=Blues
TTITLE0=Rock Me
TTITLE1=You Can't Judge a Book
TTITLE2=Bad Little Girl
TTITLE3=Money
TTITLE4=Freeze Dried Love
TTITLE5=Diggin' My Potatoes
TTITLE6=Kokomo Me Baby
TTITLE7=Apache
TTITLE8=All I Can Do Is Cry
TTITLE9=Gonna Rock My Blues
TTITLE10=Fever
TTITLE11=Nothin' But Fine
TTITLE12=Somethin' Bad Goin' Down
TTITLE13=These Boots Are Made For Walkin'
EXTD=
EXTT0=
EXTT1=
EXTT2=
EXTT3=
EXTT4=
EXTT5=
EXTT6=
EXTT7=
EXTT8=
EXTT9=
EXTT10=
EXTT11=
EXTT12=
EXTT13=
PLAYORDER=
